<svg xmlns="http://www.w3.org/2000/svg" id="dashboard_1_" width="36" height="36" viewBox="0 0 36 36">
    <defs>
        <style>
            .cls-1{fill:#2196f3}.cls-2{fill:#1976d2}
        </style>
    </defs>
    <path id="Path_1265" d="M13.875 0H2.625A2.628 2.628 0 0 0 0 2.625v6.75A2.628 2.628 0 0 0 2.625 12h11.25A2.628 2.628 0 0 0 16.5 9.375v-6.75A2.628 2.628 0 0 0 13.875 0zm0 0" class="cls-1"/>
    <path id="Path_1266" d="M13.875 213.332H2.625A2.628 2.628 0 0 0 0 215.957v15.75a2.628 2.628 0 0 0 2.625 2.625h11.25a2.628 2.628 0 0 0 2.625-2.625v-15.75a2.628 2.628 0 0 0-2.625-2.625zm0 0" class="cls-2" transform="translate(0 -198.332)"/>
    <path id="Path_1267" d="M291.207 341.332h-11.25a2.628 2.628 0 0 0-2.625 2.625v6.75a2.628 2.628 0 0 0 2.625 2.625h11.25a2.628 2.628 0 0 0 2.625-2.625v-6.75a2.628 2.628 0 0 0-2.625-2.625zm0 0" class="cls-1" transform="translate(-257.832 -317.332)"/>
    <path id="Path_1268" d="M291.207 0h-11.25a2.628 2.628 0 0 0-2.625 2.625v15.75A2.628 2.628 0 0 0 279.957 21h11.25a2.628 2.628 0 0 0 2.625-2.625V2.625A2.628 2.628 0 0 0 291.207 0zm0 0" class="cls-2" transform="translate(-257.832)"/>
</svg>
