<svg xmlns="http://www.w3.org/2000/svg" width="16" height="16" viewBox="0 0 16 16">
    <path fill="#da4d45" d="M6.167 0h-5A1.168 1.168 0 0 0 0 1.167v3a1.168 1.168 0 0 0 1.167 1.166h5a1.168 1.168 0 0 0 1.166-1.166v-3A1.168 1.168 0 0 0 6.167 0zm0 0"/>
    <path fill="#239f5f" d="M6.167 213.332h-5A1.168 1.168 0 0 0 0 214.5v7a1.168 1.168 0 0 0 1.167 1.167h5a1.168 1.168 0 0 0 1.166-1.167v-7a1.168 1.168 0 0 0-1.166-1.168zm0 0" transform="translate(0 -206.665)"/>
    <path fill="#508ef2" d="M283.5 341.332h-5a1.168 1.168 0 0 0-1.167 1.167v3a1.168 1.168 0 0 0 1.167 1.167h5a1.168 1.168 0 0 0 1.167-1.167v-3a1.168 1.168 0 0 0-1.167-1.167zm0 0" transform="translate(-268.665 -330.665)"/>
    <path fill="#fecd52" d="M283.5 0h-5a1.168 1.168 0 0 0-1.167 1.167v7a1.168 1.168 0 0 0 1.167 1.166h5a1.168 1.168 0 0 0 1.167-1.167v-7A1.168 1.168 0 0 0 283.5 0zm0 0" transform="translate(-268.665)"/>
</svg>
